# xmcd
#
# Track frame offsets: 
#        150
#        16889
#        32705
#        46163
#        64330
#
# Disc length: 1003 seconds
#
# Revision: 0
# Processed by: cddbd v1.5.2PL0 Copyright (c) Steve Scherf et al.
# Submitted via: ExactAudioCopy v0.99pb3
#
DISCID=3803e905
DTITLE=Joe McGuinness - ..from these seeds..
DYEAR=2007
DGENRE=Blues
TTITLE0=Hellhounds Blues
TTITLE1=My Name Is Joe..
TTITLE2=Can't Be Satisfied
TTITLE3=Don't Say a Word
TTITLE4=Freight Train
EXTD=
EXTT0=
EXTT1=
EXTT2=
EXTT3=
EXTT4=
PLAYORDER=
